<?xml version="1.0" encoding="utf-8"?>
<!-- Generator: Adobe Illustrator 23.1.0, SVG Export Plug-In . SVG Version: 6.00 Build 0)  -->
<svg version="1.1" id="Layer_1" xmlns="http://www.w3.org/2000/svg" xmlns:xlink="http://www.w3.org/1999/xlink" x="0px" y="0px"
	 viewBox="0 0 902.7 277.5" enable-background="new 0 0 902.7 277.5" xml:space="preserve">
<g>
	<g>
		<circle fill="#F37A25" cx="402.1" cy="126.4" r="53.1"/>
		<g>
			<path fill="#FCFCFC" d="M112.9,108.8c-7-6.2-12.1-9.9-15.4-11.1c-3.3-1.2-9.9-3.2-19.8-6s-17.5-6-22.8-9.6s-7.9-9.7-7.9-18.1
				c0-7.6,2.6-14,7.9-19.5s11.7-8.1,19.3-8.1c8.3,0,15.2,2.5,20.7,7.6s8.3,11.5,8.3,19.4h16.5c0-12-4.3-22-12.7-30.1
				C98.3,25.2,88,21.1,76,21.1c-12.7,0-23.4,4-32,11.9S31,51.2,31,63.7c0,12.1,3.1,20.9,9.3,26.2c6.2,5.4,11.3,8.8,15.2,10.3
				c3.9,1.5,9.2,3.1,15.8,4.8c6.6,1.7,11.6,3.3,15.1,4.6c3.5,1.4,6.9,3.4,10.2,6.1c3.3,2.7,5.9,6.1,7.9,10.2c2,4.1,3,8.2,3,12.3
				c0,9-3.2,16.5-9.5,22.4c-6.4,5.9-14.1,8.9-23.3,8.9c-8.9,0-16.4-3.2-22.5-9.7c-6.1-6.5-9.2-14.2-9.2-23.1H26.1
				c0,14,4.7,25.5,14.1,34.5c9.4,9,21.1,13.5,34.9,13.5c13.2,0,24.5-4.4,34-13.4c9.5-8.9,14.3-19.9,14.3-32.9
				C123.4,124.9,119.9,115,112.9,108.8z"/>
			<path fill="#FCFCFC" d="M229,64.8v61.8c0,6-0.5,11.3-1.5,15.8c-1,4.6-4,10.2-8.9,16.9c-4.9,6.7-13.4,10.1-25.4,10.1
				c-13.9,0-22.9-3.6-27.1-10.8c-4.2-7.2-6.7-12.5-7.5-15.8c-0.8-3.3-1.2-8.7-1.2-16.1V64.8h-15.9v61.8c0,9.1,0.6,16.7,1.7,22.8
				c1.1,6.1,3.4,10.8,6.6,14.2c6.6,7.7,13.1,13.1,19.5,16.3c6.4,3.1,13.7,4.7,21.7,4.7c8.7,0,16.4-1.7,23.1-5.1
				c6.7-3.4,11.9-8.6,15.6-15.7v18.2h15V64.8H229z"/>
			<path fill="#FCFCFC" d="M301.3,64.8V23.7h-15.9v41.1H261v14.4h24.4v102.9h15.9V79.2h27.2V64.8H301.3z"/>
			<path fill="#FCFCFC" d="M448.7,64.8v22.3c-4.3-8.3-10.5-14.5-18.7-18.6c-8.1-4.1-17.1-6.2-26.8-6.2h-0.3c-0.4,0-0.7,0-1.1,0
				c-8.3,0.2-16.5,2-24.4,5.7c-8.3,3.8-15.2,8.5-20.7,14.2c-5.5,5.7-9.6,12.1-12.4,19.2c-2.8,7.1-4.2,14.2-4.2,21.3
				c0,7.8,1.3,15.3,3.9,22.4c2.6,7.1,6.3,13.4,11.2,18.9c4.9,5.6,11.9,10.4,20.9,14.6c9,4.1,18.1,6.2,27.2,6.2
				c9.7,0,18.6-2.1,26.7-6.4c8.1-4.3,14.3-10.3,18.7-18.3v22.1h15.2V64.8H448.7z M435.2,156c-9,9-19.6,13.5-31.9,13.5
				c-12.7,0-23.8-4.4-33.2-13.3c-9.4-8.8-14.1-19.6-14.1-32.3c0-12.8,4.6-23.8,13.8-32.8c9-8.8,19.6-13.3,32-13.6c0.4,0,0.7,0,1.1,0
				h0.3c12.9,0.1,23.7,4.6,32.4,13.6c8.8,9,13.2,20.1,13.2,33C448.7,136.4,444.2,147,435.2,156z"/>
			<path fill="#FCFCFC" d="M519.4,67c-6,3.1-10.5,8.1-13.5,14.8V64.8h-15v117.2h15.9v-65.6c0-7.4,0.7-13.3,2.2-17.6
				c1.5-4.3,5.1-8.9,10.8-13.7c5.7-4.9,12.4-7.3,20.1-7.3V62.3C532.3,62.3,525.5,63.9,519.4,67z"/>
			<path fill="#FCFCFC" d="M656.2,23.7v69.7h-82.1V23.7h-15.9v158.4h15.9v-74.4h82.1v74.4h15.9V23.7H656.2z"/>
			<path fill="#FCFCFC" d="M789.3,64.8v61.8c0,6-0.5,11.3-1.5,15.8s-4,10.2-8.9,16.9c-4.9,6.7-13.4,10.1-25.4,10.1
				c-13.9,0-22.9-3.6-27.1-10.8c-4.2-7.2-6.7-12.5-7.5-15.8c-0.8-3.3-1.2-8.7-1.2-16.1V64.8h-15.9v61.8c0,9.1,0.6,16.7,1.7,22.8
				c1.1,6.1,3.3,10.8,6.6,14.2c6.6,7.7,13.1,13.1,19.5,16.3c6.4,3.1,13.6,4.7,21.6,4.7c8.7,0,16.4-1.7,23.1-5.1
				c6.7-3.4,11.9-8.6,15.7-15.7v18.2h15V64.8H789.3z"/>
			<path fill="#FCFCFC" d="M861.5,64.8V23.7h-15.9v41.1h-24.4v14.4h24.4v102.9h15.9V79.2h27.2V64.8H861.5z"/>
		</g>
		<g>
			<path fill="#FFFFFF" d="M403.2,62.3v65h-1.4v-65c0.4,0,0.7,0,1.1,0H403.2z"/>
		</g>
		<path fill="#FFFFFF" d="M407.4,141h-10c-2.1,0-3.8-1.7-3.8-3.8v-24.3c0-2.1,1.7-3.8,3.8-3.8h10c2.1,0,3.8,1.7,3.8,3.8v24.3
			C411.2,139.3,409.5,141,407.4,141z"/>
	</g>
	<g>
		<g>
			<path fill="#DDDDDD" d="M652.3,237.9l-13.5-19.4v-0.2h7.4l10.4,15.3l10.3-15.3h7.7v0.2l-13.7,19.4l14.8,20.5v0.2H668l-11.3-16.3
				l-11.4,16.3h-7.4v-0.2L652.3,237.9z"/>
			<path fill="#DDDDDD" d="M683,218.4h6.4l0.3,7.8c1.6-2.7,3.8-4.7,6.5-6.2c2.8-1.5,5.8-2.2,9-2.2c5.9,0.1,10.7,2.1,14.4,5.9
				c3.8,3.8,5.6,8.8,5.6,14.9c0,6.3-1.9,11.4-5.7,15.2c-3.8,3.8-8.7,5.8-14.8,5.8c-3.1,0-6-0.7-8.8-2c-2.8-1.4-4.9-3.4-6.4-6.1v26.3
				H683V218.4z M714.6,249.2c2.7-2.6,4-6.1,4-10.6c0-4.5-1.3-8-4-10.6c-2.6-2.6-6.1-3.9-10.2-3.9c-4.2,0-7.6,1.4-10.2,4.1
				c-2.6,2.7-3.9,6.2-3.9,10.4c0,4.1,1.3,7.6,4,10.3c2.7,2.7,6,4.1,10.1,4.2C708.5,253.1,711.9,251.8,714.6,249.2z"/>
			<path fill="#DDDDDD" d="M741.3,218.1l0.5,6c2.4-4.5,6.5-6.7,12.4-6.7c3.5-0.1,6.7,0.9,9.4,3l-3,5.7c-2.1-1.5-4.5-2.2-7-2.2
				c-3.3,0.1-6.1,1.2-8.4,3.4c-2.3,2.2-3.4,5.1-3.4,8.7v22.4H735v-40.3L741.3,218.1L741.3,218.1z"/>
			<path fill="#DDDDDD" d="M804.7,252.1c-2,2.3-4.5,4.1-7.7,5.3c-3.2,1.2-6.4,1.8-9.7,1.8c-6.3,0-11.4-1.9-15.3-5.8
				c-3.9-3.8-5.9-8.9-5.9-15.3c0-6.1,2-11.1,5.9-15c3.9-3.9,8.9-5.9,15-5.9c6.5,0,11.7,2,15.5,6.1c3.8,4.1,5.4,9.9,4.6,17.6h-34.3
				c0.4,3.6,1.9,6.6,4.7,8.8c2.7,2.2,6,3.3,10,3.3c2.4,0,4.8-0.4,7.2-1.3c2.4-0.9,4.3-2.1,5.6-3.7L804.7,252.1L804.7,252.1z
				 M800.8,235.4c-0.2-3.9-1.5-6.8-3.9-8.9c-2.4-2.1-5.7-3.1-9.7-3.1c-3.6,0-6.8,1.1-9.5,3.2c-2.7,2.1-4.3,5.1-4.8,8.8L800.8,235.4
				L800.8,235.4z"/>
			<path fill="#DDDDDD" d="M842.3,227.2c-2.9-2.6-6.7-3.9-11.3-3.9c-2.9-0.1-5.3,0.4-7.2,1.5c-1.9,1-2.8,2.5-2.7,4.4
				c0.1,3.2,3.4,5.2,10,6c1.9,0.2,3.5,0.4,4.7,0.7c1.2,0.2,2.7,0.6,4.4,1.2c1.7,0.6,3.1,1.3,4.1,2.1c1,0.8,1.9,1.9,2.7,3.4
				c0.8,1.4,1.1,3.1,1.1,5c-0.1,3.9-1.7,6.8-4.9,8.9c-3.2,2.1-7.2,3.1-12,3.1c-8,0-14-2.5-18-7.6l3.8-4.7c3.4,4.1,8.2,6.2,14.4,6.2
				c2.7,0,5-0.5,7.1-1.5c2-1,3.1-2.6,3.1-4.8c0.1-2-0.9-3.5-2.7-4.4c-1.9-0.9-4.6-1.6-8.1-2c-2.3-0.3-4.2-0.6-5.9-1.1
				c-1.6-0.4-3.3-1.1-5-1.9c-1.7-0.8-3-1.9-3.9-3.4c-0.9-1.4-1.3-3.2-1.3-5.3c0-2.7,0.8-5,2.5-6.9c1.7-1.8,3.7-3.2,6.1-3.9
				c2.4-0.8,4.9-1.1,7.7-1.1c6.3,0,11.4,1.8,15.3,5.4L842.3,227.2L842.3,227.2z"/>
			<path fill="#DDDDDD" d="M883,227.2c-2.9-2.6-6.7-3.9-11.3-3.9c-2.9-0.1-5.3,0.4-7.2,1.5c-1.9,1-2.8,2.5-2.7,4.4
				c0.1,3.2,3.4,5.2,10,6c1.9,0.2,3.5,0.4,4.7,0.7c1.2,0.2,2.7,0.6,4.4,1.2c1.7,0.6,3.1,1.3,4.1,2.1c1,0.8,1.9,1.9,2.7,3.4
				c0.8,1.4,1.1,3.1,1.1,5c-0.1,3.9-1.7,6.8-4.9,8.9c-3.2,2.1-7.2,3.1-12,3.1c-8,0-14-2.5-18-7.6l3.8-4.7c3.4,4.1,8.2,6.2,14.4,6.2
				c2.7,0,5-0.5,7.1-1.5c2-1,3.1-2.6,3.1-4.8c0.1-2-0.9-3.5-2.7-4.4c-1.9-0.9-4.6-1.6-8.1-2c-2.3-0.3-4.2-0.6-5.9-1.1
				c-1.6-0.4-3.3-1.1-5-1.9c-1.7-0.8-3-1.9-3.9-3.4c-0.9-1.4-1.3-3.2-1.3-5.3c0-2.7,0.8-5,2.5-6.9c1.7-1.8,3.7-3.2,6.1-3.9
				c2.4-0.8,4.9-1.1,7.7-1.1c6.3,0,11.4,1.8,15.3,5.4L883,227.2L883,227.2z"/>
		</g>
		<g>
			<path fill="#F37A25" d="M608.7,213.3h-22.9c-1.5,0-2.7,1.2-2.7,2.7c0,1.5,1.2,2.7,2.7,2.7h22.9c10.5,0,19.1,6.8,19.1,15.2v0.4
				H595c-1.8,0-3.3,1.5-3.3,3.3c0,0.9,0.4,1.7,1,2.3c0.6,0.6,1.4,1,2.3,1h32.8v0.4c0,8.4-8.6,15.2-19.1,15.2l-47.4,1
				c-1.5,0-2.7,1.2-2.7,2.7c0,1.5,1.2,2.7,2.7,2.7l47.4-1c13.5,0,24.5-9.3,24.5-20.7v-7.3C633.2,222.5,622.2,213.3,608.7,213.3z"/>
			<path fill="#F37A25" d="M573.2,240.8h11c1.8,0,3.3-1.5,3.3-3.3c0-1.8-1.5-3.3-3.3-3.3h-11c-1.8,0-3.3,1.5-3.3,3.3
				C570,239.4,571.4,240.8,573.2,240.8z"/>
			<path fill="#F37A25" d="M551.3,256.9h-0.6c-1.8,0-3.3,1.5-3.3,3.3c0,1.8,1.5,3.3,3.3,3.3h0.6c1.8,0,3.3-1.5,3.3-3.3
				C554.6,258.3,553.1,256.9,551.3,256.9z"/>
		</g>
	</g>
</g>
</svg>
