<?xml version="1.0" encoding="utf-8"?>
<!-- Generator: Adobe Illustrator 23.1.0, SVG Export Plug-In . SVG Version: 6.00 Build 0)  -->
<svg version="1.1" id="Layer_1" xmlns="http://www.w3.org/2000/svg" xmlns:xlink="http://www.w3.org/1999/xlink" x="0px" y="0px"
	 viewBox="0 0 893.2 279.9" enable-background="new 0 0 893.2 279.9" xml:space="preserve">
<g>
	<g>
		<circle fill="#F37A25" cx="394" cy="122.4" r="53.1"/>
		<g>
			<path fill="#231F20" d="M104.8,104.7c-7-6.2-12.1-9.9-15.4-11.1c-3.3-1.2-9.9-3.2-19.8-6S52,81.6,46.7,78s-7.9-9.7-7.9-18.1
				c0-7.6,2.6-14,7.9-19.5s11.7-8.1,19.3-8.1c8.3,0,15.2,2.5,20.7,7.6s8.3,11.5,8.3,19.4h16.5c0-12-4.3-22-12.7-30.1
				c-8.5-8.1-18.8-12.1-30.8-12.1c-12.7,0-23.4,4-32,11.9s-13,18.2-13,30.7c0,12.1,3.1,20.9,9.3,26.2c6.2,5.4,11.3,8.8,15.2,10.3
				c3.9,1.5,9.2,3.1,15.8,4.8c6.6,1.7,11.6,3.3,15.1,4.6c3.5,1.4,6.9,3.4,10.2,6.1c3.3,2.7,5.9,6.1,7.9,10.2s3,8.2,3,12.3
				c0,9-3.2,16.5-9.5,22.4c-6.4,5.9-14.1,8.9-23.3,8.9c-8.9,0-16.4-3.2-22.5-9.7c-6.1-6.5-9.2-14.2-9.2-23.1H18
				c0,14,4.7,25.5,14.1,34.5c9.4,9,21.1,13.5,34.9,13.5c13.2,0,24.5-4.4,34-13.4c9.5-8.9,14.3-19.9,14.3-32.9
				C115.3,120.8,111.8,110.9,104.8,104.7z"/>
			<path fill="#231F20" d="M220.9,60.8v61.8c0,6-0.5,11.3-1.5,15.8c-1,4.6-4,10.2-8.9,16.9c-4.9,6.7-13.4,10.1-25.4,10.1
				c-13.9,0-22.9-3.6-27.1-10.8c-4.2-7.2-6.7-12.5-7.5-15.8c-0.8-3.3-1.2-8.7-1.2-16.1V60.8h-15.9v61.8c0,9.1,0.6,16.7,1.7,22.8
				c1.1,6.1,3.4,10.8,6.6,14.2c6.6,7.7,13.1,13.1,19.5,16.3c6.4,3.1,13.7,4.7,21.7,4.7c8.7,0,16.4-1.7,23.1-5.1
				c6.7-3.4,11.9-8.6,15.6-15.7V178h15V60.8H220.9z"/>
			<path fill="#231F20" d="M293.2,60.8V19.6h-15.9v41.1h-24.4v14.4h24.4V178h15.9V75.1h27.2V60.8H293.2z"/>
			<path fill="#231F20" d="M440.6,60.8v22.3c-4.3-8.3-10.5-14.5-18.7-18.6c-8.1-4.1-17.1-6.2-26.8-6.2h-0.3c-0.4,0-0.7,0-1.1,0
				c-8.3,0.2-16.5,2-24.4,5.7c-8.3,3.8-15.2,8.5-20.7,14.2c-5.5,5.7-9.6,12.1-12.4,19.2c-2.8,7.1-4.2,14.2-4.2,21.3
				c0,7.8,1.3,15.3,3.9,22.4c2.6,7.1,6.3,13.4,11.2,18.9c4.9,5.6,11.9,10.4,20.9,14.6c9,4.1,18.1,6.2,27.2,6.2
				c9.7,0,18.6-2.1,26.7-6.4c8.1-4.3,14.3-10.3,18.7-18.3V178h15.2V60.8H440.6z M427.1,151.9c-9,9-19.6,13.5-31.9,13.5
				c-12.7,0-23.8-4.4-33.2-13.3c-9.4-8.8-14.1-19.6-14.1-32.3c0-12.8,4.6-23.8,13.8-32.8c9-8.8,19.6-13.3,32-13.6c0.4,0,0.7,0,1.1,0
				h0.3c12.9,0.1,23.7,4.6,32.4,13.6c8.8,9,13.2,20.1,13.2,33C440.6,132.3,436.1,142.9,427.1,151.9z"/>
			<path fill="#231F20" d="M511.3,62.9c-6,3.1-10.5,8.1-13.5,14.8V60.8h-15V178h15.9v-65.6c0-7.4,0.7-13.3,2.2-17.6
				c1.5-4.3,5.1-8.9,10.8-13.7c5.7-4.9,12.4-7.3,20.1-7.3V58.2C524.2,58.2,517.3,59.8,511.3,62.9z"/>
			<path fill="#231F20" d="M648.1,19.6v69.7H566V19.6h-15.9V178H566v-74.4h82.1V178H664V19.6H648.1z"/>
			<path fill="#231F20" d="M781.2,60.8v61.8c0,6-0.5,11.3-1.5,15.8c-1,4.6-4,10.2-8.9,16.9c-4.9,6.7-13.4,10.1-25.4,10.1
				c-13.9,0-22.9-3.6-27.1-10.8c-4.2-7.2-6.7-12.5-7.5-15.8c-0.8-3.3-1.2-8.7-1.2-16.1V60.8h-15.9v61.8c0,9.1,0.6,16.7,1.7,22.8
				c1.1,6.1,3.3,10.8,6.6,14.2c6.6,7.7,13.1,13.1,19.5,16.3c6.4,3.1,13.6,4.7,21.6,4.7c8.7,0,16.4-1.7,23.1-5.1
				c6.7-3.4,11.9-8.6,15.7-15.7V178h15V60.8H781.2z"/>
			<path fill="#231F20" d="M853.4,60.8V19.6h-15.9v41.1h-24.4v14.4h24.4V178h15.9V75.1h27.2V60.8H853.4z"/>
		</g>
		<g>
			<path fill="#FFFFFF" d="M395.1,58.2v65h-1.4v-65c0.4,0,0.7,0,1.1,0H395.1z"/>
		</g>
		<path fill="#FFFFFF" d="M399.3,136.9h-10c-2.1,0-3.8-1.7-3.8-3.8v-24.3c0-2.1,1.7-3.8,3.8-3.8h10c2.1,0,3.8,1.7,3.8,3.8v24.3
			C403.1,135.2,401.4,136.9,399.3,136.9z"/>
	</g>
	<g>
		<g>
			<path fill="#231F20" d="M644.2,233.8l-13.5-19.4v-0.2h7.4l10.4,15.3l10.3-15.3h7.7v0.2l-13.7,19.4l14.8,20.5v0.2h-7.7l-11.3-16.3
				l-11.4,16.3h-7.4v-0.2L644.2,233.8z"/>
			<path fill="#231F20" d="M674.9,214.3h6.4l0.3,7.8c1.6-2.7,3.8-4.7,6.5-6.2c2.8-1.5,5.8-2.2,9-2.2c5.9,0.1,10.7,2.1,14.4,5.9
				c3.8,3.8,5.6,8.8,5.6,14.9c0,6.3-1.9,11.4-5.7,15.2c-3.8,3.8-8.7,5.8-14.8,5.8c-3.1,0-6-0.7-8.8-2c-2.8-1.4-4.9-3.4-6.4-6.1v26.3
				h-6.5V214.3z M706.5,245.1c2.7-2.6,4-6.1,4-10.6c0-4.5-1.3-8-4-10.6c-2.6-2.6-6.1-3.9-10.2-3.9c-4.2,0-7.6,1.4-10.2,4.1
				c-2.6,2.7-3.9,6.2-3.9,10.4c0,4.1,1.3,7.6,4,10.3c2.7,2.7,6,4.1,10.1,4.2C700.4,249.1,703.8,247.8,706.5,245.1z"/>
			<path fill="#231F20" d="M733.2,214.1l0.5,6c2.4-4.5,6.5-6.7,12.4-6.7c3.5-0.1,6.7,0.9,9.4,3l-3,5.7c-2.1-1.5-4.5-2.2-7-2.2
				c-3.3,0.1-6.1,1.2-8.4,3.4c-2.3,2.2-3.4,5.1-3.4,8.7v22.4h-6.7v-40.3L733.2,214.1L733.2,214.1z"/>
			<path fill="#231F20" d="M796.6,248c-2,2.3-4.5,4.1-7.7,5.3c-3.2,1.2-6.4,1.8-9.7,1.8c-6.3,0-11.4-1.9-15.3-5.8
				c-3.9-3.8-5.9-8.9-5.9-15.3c0-6.1,2-11.1,5.9-15c3.9-3.9,8.9-5.9,15-5.9c6.5,0,11.7,2,15.5,6.1c3.8,4.1,5.4,9.9,4.6,17.6h-34.3
				c0.4,3.6,1.9,6.6,4.7,8.8c2.7,2.2,6,3.3,10,3.3c2.4,0,4.8-0.4,7.2-1.3c2.4-0.9,4.3-2.1,5.6-3.7L796.6,248L796.6,248z
				 M792.7,231.4c-0.2-3.9-1.5-6.8-3.9-8.9c-2.4-2.1-5.7-3.1-9.7-3.1c-3.6,0-6.8,1.1-9.5,3.2c-2.7,2.1-4.3,5.1-4.8,8.8L792.7,231.4
				L792.7,231.4z"/>
			<path fill="#231F20" d="M834.2,223.1c-2.9-2.6-6.7-3.9-11.3-3.9c-2.9-0.1-5.3,0.4-7.2,1.5c-1.9,1-2.8,2.5-2.7,4.4
				c0.1,3.2,3.4,5.2,10,6c1.9,0.2,3.5,0.4,4.7,0.7c1.2,0.2,2.7,0.6,4.4,1.2s3.1,1.3,4.1,2.1c1,0.8,1.9,1.9,2.7,3.4
				c0.8,1.4,1.1,3.1,1.1,5c-0.1,3.9-1.7,6.8-4.9,8.9c-3.2,2.1-7.2,3.1-12,3.1c-8,0-14-2.5-18-7.6l3.8-4.7c3.4,4.1,8.2,6.2,14.4,6.2
				c2.7,0,5-0.5,7.1-1.5c2-1,3.1-2.6,3.1-4.8c0.1-2-0.9-3.5-2.7-4.4c-1.9-0.9-4.6-1.6-8.1-2c-2.3-0.3-4.2-0.6-5.9-1.1
				c-1.6-0.4-3.3-1.1-5-1.9c-1.7-0.8-3-1.9-3.9-3.4c-0.9-1.4-1.3-3.2-1.3-5.3c0-2.7,0.8-5,2.5-6.9c1.7-1.8,3.7-3.2,6.1-3.9
				c2.4-0.8,4.9-1.1,7.7-1.1c6.3,0,11.4,1.8,15.3,5.4L834.2,223.1L834.2,223.1z"/>
			<path fill="#231F20" d="M874.9,223.1c-2.9-2.6-6.7-3.9-11.3-3.9c-2.9-0.1-5.3,0.4-7.2,1.5c-1.9,1-2.8,2.5-2.7,4.4
				c0.1,3.2,3.4,5.2,10,6c1.9,0.2,3.5,0.4,4.7,0.7c1.2,0.2,2.7,0.6,4.4,1.2s3.1,1.3,4.1,2.1c1,0.8,1.9,1.9,2.7,3.4
				c0.8,1.4,1.1,3.1,1.1,5c-0.1,3.9-1.7,6.8-4.9,8.9c-3.2,2.1-7.2,3.1-12,3.1c-8,0-14-2.5-18-7.6l3.8-4.7c3.4,4.1,8.2,6.2,14.4,6.2
				c2.7,0,5-0.5,7.1-1.5c2-1,3.1-2.6,3.1-4.8c0.1-2-0.9-3.5-2.7-4.4c-1.9-0.9-4.6-1.6-8.1-2c-2.3-0.3-4.2-0.6-5.9-1.1
				c-1.6-0.4-3.3-1.1-5-1.9c-1.7-0.8-3-1.9-3.9-3.4c-0.9-1.4-1.3-3.2-1.3-5.3c0-2.7,0.8-5,2.5-6.9c1.7-1.8,3.7-3.2,6.1-3.9
				c2.4-0.8,4.9-1.1,7.7-1.1c6.3,0,11.4,1.8,15.3,5.4L874.9,223.1L874.9,223.1z"/>
		</g>
		<g>
			<path fill="#231F20" d="M600.6,209.2h-22.9c-1.5,0-2.7,1.2-2.7,2.7c0,1.5,1.2,2.7,2.7,2.7h22.9c10.5,0,19.1,6.8,19.1,15.2v0.4
				h-32.8c-1.8,0-3.3,1.5-3.3,3.3c0,0.9,0.4,1.7,1,2.3c0.6,0.6,1.4,1,2.3,1h32.8v0.4c0,8.4-8.6,15.2-19.1,15.2l-47.4,1
				c-1.5,0-2.7,1.2-2.7,2.7c0,1.5,1.2,2.7,2.7,2.7l47.4-1c13.5,0,24.5-9.3,24.5-20.7v-7.3C625.1,218.5,614.1,209.2,600.6,209.2z"/>
			<path fill="#231F20" d="M565.1,236.8h11c1.8,0,3.3-1.5,3.3-3.3c0-1.8-1.5-3.3-3.3-3.3h-11c-1.8,0-3.3,1.5-3.3,3.3
				C561.8,235.3,563.3,236.8,565.1,236.8z"/>
			<path fill="#231F20" d="M543.2,252.8h-0.6c-1.8,0-3.3,1.5-3.3,3.3c0,1.8,1.5,3.3,3.3,3.3h0.6c1.8,0,3.3-1.5,3.3-3.3
				C546.4,254.3,545,252.8,543.2,252.8z"/>
		</g>
	</g>
</g>
</svg>
