<svg width="340" height="340" viewBox="0 0 340 340" fill="none" xmlns="http://www.w3.org/2000/svg">
<g clip-path="url(#clip0_104_972)">
<path d="M194.868 227.464C187.613 227.244 166.085 220.374 161.805 217.204Z" fill="#EB8682"/>
<path d="M197.854 261.324C211.241 280.074 254.525 285.64 261.91 288.32C274.022 292.91 276.083 305.32 276.262 312.08C276.779 331.34 279.039 364.38 272.281 381.84" fill="#EB8682"/>
<path d="M197.854 261.324C189.733 246.684 194.868 227.464 194.868 227.464C194.868 227.464 210.604 228.214 216.914 224.984C229.047 219.754 243.458 200.624 243.309 173.234C242.965 148.568 237.78 124.213 228.051 101.564C219.273 78.7543 164.801 57.4343 123.765 97.2743C123.765 97.2743 101.64 117.594 114.489 151.364" fill="#EB8682"/>
<path d="M50.7301 381.84C44.8878 363.03 47.1869 313.57 48.0329 306.59C48.8788 299.61 52.1434 285.45 69.4315 281.14C77.0753 279.21 124.939 271.434 134.653 257.944" fill="#EB8682"/>
<path d="M137.002 206.944C137.002 206.944 120.928 197.774 114.519 178.654C108.109 159.534 114.489 151.364 114.489 151.364C119.635 143.654 140.108 141.764 140.108 165.024" fill="#EB8682"/>
<path d="M137.002 206.944C138.227 231.244 138.535 242.394 134.653 257.944Z" fill="#EB8682"/>
<path d="M197.854 261.324C211.241 280.074 254.525 285.64 261.91 288.32C274.022 292.91 276.083 305.32 276.262 312.08C276.779 331.34 279.039 364.38 272.281 381.84H50.7301C44.8878 363.03 47.1869 313.57 48.0329 306.59C48.8788 299.61 52.1434 285.45 69.4315 281.14C77.0753 279.21 124.939 271.434 134.653 257.944C138.535 242.394 138.227 231.244 137.002 206.944C137.002 206.944 120.928 197.774 114.519 178.654C108.109 159.534 114.489 151.364 114.489 151.364C101.64 117.594 123.765 97.2743 123.765 97.2743C164.801 57.4343 219.273 78.7543 228.051 101.564C237.78 124.213 242.965 148.568 243.309 173.234C243.458 200.624 229.047 219.754 216.914 224.984C210.604 228.214 194.868 227.464 194.868 227.464C194.868 227.464 189.733 246.684 197.854 261.324Z" fill="#EB8682"/>
<path opacity="0.4" d="M194.639 226.694C193.676 233.5 192.183 243.5 194.639 251.5C185.533 249.33 159.824 231.474 159.824 216.974C171.072 221.388 182.737 224.645 194.639 226.694Z" fill="#050504"/>
<path d="M126.22 157C122.338 158.06 119.691 163.95 122.776 170.3" stroke="#050504" stroke-width="3" stroke-linecap="round"/>
<path d="M50.8773 381.34C45.0073 362.53 47.3173 313.07 48.1673 306.09C49.0173 299.11 52.2973 284.95 69.6673 280.64C77.3473 278.71 108.906 274 123.906 266.5" fill="#F1CF73"/>
<path d="M50.8773 381.34C45.0073 362.53 47.3173 313.07 48.1673 306.09C49.0173 299.11 52.2973 284.95 69.6673 280.64C77.3473 278.71 108.906 274 123.906 266.5L130.406 263C130.406 270.732 145.352 276 164.406 276C183.46 276 198.906 269.732 198.906 262L203.406 266.5C220.406 281 255.637 285.14 263.057 287.82C275.227 292.41 277.297 304.82 277.477 311.58C277.997 330.84 280.267 363.88 273.477 381.34H50.8773Z" fill="#F1CF73"/>
<path d="M50.8773 381.34C45.0073 362.53 47.3173 313.07 48.1673 306.09C49.0173 299.11 52.2973 284.95 69.6673 280.64C77.3473 278.71 108.906 274 123.906 266.5L130.406 263C130.406 270.732 145.352 276 164.406 276C183.46 276 198.906 269.732 198.906 262L203.406 266.5C220.406 281 255.637 285.14 263.057 287.82C275.227 292.41 277.297 304.82 277.477 311.58C277.997 330.84 280.267 363.88 273.477 381.34H50.8773Z" stroke="#050504" stroke-width="3" stroke-linecap="round" stroke-linejoin="round"/>
<path d="M167.746 300.77C169.839 300.77 171.536 299.073 171.536 296.98C171.536 294.887 169.839 293.19 167.746 293.19C165.653 293.19 163.956 294.887 163.956 296.98C163.956 299.073 165.653 300.77 167.746 300.77Z" fill="#050504"/>
<path d="M167.746 317.74C169.839 317.74 171.536 316.043 171.536 313.95C171.536 311.857 169.839 310.16 167.746 310.16C165.653 310.16 163.956 311.857 163.956 313.95C163.956 316.043 165.653 317.74 167.746 317.74Z" fill="#050504"/>
<path d="M167.746 334.74C169.839 334.74 171.536 333.043 171.536 330.95C171.536 328.857 169.839 327.16 167.746 327.16C165.653 327.16 163.956 328.857 163.956 330.95C163.956 333.043 165.653 334.74 167.746 334.74Z" fill="#050504"/>
<path d="M163.906 283C185.998 283 203.906 276.113 203.906 267L198.906 262C198.906 269.732 183.46 276 164.406 276C145.352 276 130.406 270.732 130.406 263L123.906 266.5C123.906 275.613 141.815 283 163.906 283Z" fill="white" stroke="#050504" stroke-width="3" stroke-linecap="round" stroke-linejoin="round"/>
<path d="M155.207 183.337C150.133 173.721 150.153 171.802 147.309 161.324C145.967 156.32 144.239 151.424 144.97 146.087C146.569 134.405 152.423 125.602 163.421 120.226C172.089 115.976 181.408 113.919 190.994 112.832C200.14 111.656 209.43 112.302 218.321 114.732C222.754 115.995 227.078 117.67 231.461 119.041C233.258 119.628 235.301 120.196 236.822 118.796C240.05 115.809 241.61 106.252 242.745 101.787C245.174 93.4927 246.477 85.6294 243.406 78.4027C241.274 73.3695 237.73 69.5897 231.984 68.3461C227.334 67.1958 222.452 67.3517 217.886 68.7965C216.623 69.2078 216.159 68.7965 215.912 67.69C215.517 65.9077 214.79 64.2141 213.77 62.6959C206.365 51.0627 189.671 48.311 178.703 56.9968C177.321 58.0837 176.897 57.8977 175.998 56.5072C174.699 54.3919 172.939 52.591 170.849 51.2357C168.758 49.8805 166.389 49.0051 163.915 48.6733C159.199 47.9697 154.402 48.0061 149.698 48.781C140.488 50.2401 133.695 54.5095 130.941 63.5772C130.913 63.8162 130.834 64.0466 130.709 64.2533C130.585 64.46 130.418 64.6385 130.22 64.7771C130.022 64.9156 129.796 65.0112 129.558 65.0575C129.32 65.1039 129.075 65.1 128.838 65.046C125.682 64.788 122.509 65.2606 119.568 66.4268C105.846 72.0279 96.5262 81.3208 93.604 95.8036C92.4193 101.679 92.3107 107.554 95.2329 113.058C95.9338 114.399 95.6179 114.859 94.3641 115.555C80.7404 123.075 74.353 139.174 79.4175 153.216C81.925 160.178 88.194 166.925 97.7503 166.749C99.0041 166.749 99.2608 167.385 99.6261 168.316C102.183 174.974 100.209 189.555 103.486 195.949C107.79 204.322 109.41 206.77 115.807 213.703C118.453 216.592 121.395 217.962 126.153 216.729C129.904 214.77 133.508 213.341 135.838 210.413C136.479 209.482 136.469 208.344 136.429 206.807C134.675 205.687 133.565 204.731 131.987 203.379C126.764 199.462 119.203 190.444 115.807 181.836C113.497 176.823 110.061 163.605 112.036 157.094C114.119 150.239 117.465 147.566 120.062 146.724C122.337 145.837 124.769 145.416 127.212 145.487C129.655 145.557 132.059 146.118 134.278 147.135C139.046 150.073 139.54 152.08 141.564 157.906C143.913 170.871 144.269 180.076 147.102 192.483C148.356 197.986 149.718 203.499 150.162 209.13C150.409 212.303 151.969 213.889 154.477 215.289C158.366 217.457 162.345 219.464 166.412 221.311C175.663 225.552 185.249 228.656 195.585 228.616C205.122 228.616 214.658 228.793 224.215 228.989C226.841 228.989 229.457 228.989 232.112 228.989C233.487 229.061 234.848 228.688 235.991 227.927C237.134 227.166 237.997 226.057 238.45 224.768C239.128 223.08 239.644 221.333 239.991 219.549C241.57 212.068 243.13 204.583 244.67 197.095C245.608 192.581 246.566 183.386 245.717 178.764C245.613 178.01 245.24 177.318 244.666 176.813C244.092 176.308 243.354 176.024 242.587 176.012C240.662 175.787 239.467 176.992 238.263 178.088C234.314 181.819 230.316 185.57 225.35 188.135C218.499 191.68 211.084 193.433 203.522 194.578C180.707 196.841 165.346 194.941 155.207 183.337Z" fill="#050504"/>
<path d="M199.737 155.13C199.737 155.958 200.408 156.63 201.237 156.63C202.065 156.63 202.737 155.958 202.737 155.13H199.737ZM215.134 153.48C215.134 154.308 215.806 154.98 216.634 154.98C217.462 154.98 218.134 154.308 218.134 153.48H215.134ZM170.539 155.75C171.329 156 172.171 155.561 172.421 154.771C172.67 153.981 172.232 153.139 171.441 152.889L170.539 155.75ZM117.404 146.49L118.048 147.845C118.064 147.837 118.08 147.829 118.096 147.821L117.404 146.49ZM107.967 162.434C108.118 163.249 108.901 163.786 109.716 163.635C110.53 163.483 111.068 162.7 110.916 161.886L107.967 162.434ZM199.737 154.32C199.737 163.364 193.442 170.31 186.119 170.31V173.31C195.494 173.31 202.737 164.595 202.737 154.32H199.737ZM186.119 170.31C178.795 170.31 172.5 163.364 172.5 154.32H169.5C169.5 164.595 176.743 173.31 186.119 173.31V170.31ZM172.5 154.32C172.5 145.276 178.795 138.33 186.119 138.33V135.33C176.743 135.33 169.5 144.045 169.5 154.32H172.5ZM186.119 138.33C193.442 138.33 199.737 145.276 199.737 154.32H202.737C202.737 144.045 195.494 135.33 186.119 135.33V138.33ZM245.232 150.94C245.232 159.984 238.937 166.93 231.613 166.93V169.93C240.989 169.93 248.232 161.215 248.232 150.94H245.232ZM231.613 166.93C224.29 166.93 217.995 159.984 217.995 150.94H214.995C214.995 161.215 222.237 169.93 231.613 169.93V166.93ZM217.995 150.94C217.995 141.896 224.29 134.95 231.613 134.95V131.95C222.237 131.95 214.995 140.665 214.995 150.94H217.995ZM231.613 134.95C238.937 134.95 245.232 141.896 245.232 150.94H248.232C248.232 140.665 240.989 131.95 231.613 131.95V134.95ZM202.737 155.13C202.737 154.027 203.311 153.125 204.448 152.401C205.618 151.657 207.276 151.195 209.026 151.088C210.779 150.982 212.446 151.243 213.61 151.77C214.785 152.302 215.134 152.923 215.134 153.48H218.134C218.134 151.252 216.558 149.812 214.847 149.037C213.124 148.257 210.942 147.967 208.845 148.094C206.746 148.221 204.555 148.778 202.838 149.87C201.088 150.983 199.737 152.733 199.737 155.13H202.737ZM170.99 154.32C171.441 152.889 171.441 152.889 171.441 152.889C171.44 152.889 171.44 152.889 171.439 152.889C171.438 152.888 171.435 152.888 171.433 152.887C171.427 152.885 171.419 152.882 171.408 152.879C171.387 152.872 171.355 152.862 171.314 152.85C171.231 152.824 171.109 152.786 170.95 152.737C170.631 152.638 170.163 152.495 169.565 152.315C168.368 151.956 166.648 151.449 164.551 150.858C160.358 149.678 154.649 148.162 148.593 146.822C142.545 145.483 136.113 144.312 130.484 143.835C127.671 143.597 125.024 143.528 122.707 143.709C120.413 143.888 118.327 144.319 116.712 145.159L118.096 147.821C119.195 147.249 120.82 146.865 122.941 146.7C125.039 146.536 127.512 146.594 130.231 146.824C135.668 147.286 141.954 148.425 147.945 149.751C153.928 151.075 159.58 152.575 163.738 153.746C165.816 154.331 167.519 154.833 168.701 155.188C169.292 155.366 169.753 155.507 170.066 155.603C170.222 155.651 170.341 155.688 170.42 155.713C170.46 155.726 170.49 155.735 170.51 155.741C170.52 155.745 170.527 155.747 170.532 155.748C170.535 155.749 170.536 155.75 170.537 155.75C170.538 155.75 170.538 155.75 170.539 155.75C170.539 155.75 170.539 155.75 170.99 154.32ZM116.76 145.135C113.596 146.64 111.019 149.154 109.429 152.283L112.104 153.642C113.394 151.102 115.485 149.064 118.048 147.845L116.76 145.135ZM109.429 152.283C107.839 155.412 107.325 158.981 107.967 162.434L110.916 161.886C110.395 159.081 110.813 156.182 112.104 153.642L109.429 152.283Z" fill="white"/>
<path d="M210.743 159.458C210.41 158.699 209.525 158.354 208.767 158.686C208.008 159.018 207.662 159.903 207.995 160.662L210.743 159.458ZM211.185 185.261C210.429 185.599 210.09 186.486 210.428 187.242C210.766 187.999 211.653 188.337 212.409 187.999L211.185 185.261ZM164.26 137.444C163.726 138.077 163.807 139.023 164.441 139.557C165.074 140.091 166.021 140.01 166.554 139.376L164.26 137.444ZM187.194 129.01L187.447 127.531L187.436 127.53L187.194 129.01ZM189.946 131.296C190.723 131.584 191.586 131.189 191.875 130.412C192.163 129.635 191.767 128.772 190.991 128.484L189.946 131.296ZM212.795 131.054C212.184 131.613 212.142 132.562 212.702 133.173C213.261 133.784 214.21 133.826 214.821 133.266L212.795 131.054ZM233.953 127.43L234.584 126.069L234.582 126.068L233.953 127.43ZM235.667 130.197C236.328 130.696 237.269 130.565 237.768 129.903C238.267 129.242 238.135 128.301 237.474 127.802L235.667 130.197ZM209.369 160.06C207.995 160.662 207.995 160.662 207.995 160.662C207.995 160.662 207.995 160.662 207.995 160.663C207.995 160.663 207.996 160.664 207.996 160.665C207.997 160.667 207.999 160.671 208.001 160.675C208.005 160.685 208.011 160.698 208.019 160.717C208.034 160.753 208.058 160.807 208.089 160.878C208.151 161.02 208.242 161.228 208.358 161.495C208.589 162.028 208.92 162.792 209.317 163.715C210.111 165.564 211.17 168.05 212.228 170.604C213.287 173.161 214.34 175.774 215.127 177.881C215.521 178.937 215.841 179.848 216.062 180.554C216.172 180.908 216.252 181.194 216.303 181.411C216.36 181.656 216.358 181.722 216.358 181.68H219.358C219.358 181.357 219.29 181.01 219.223 180.725C219.15 180.412 219.047 180.052 218.926 179.661C218.681 178.879 218.339 177.909 217.937 176.832C217.132 174.676 216.063 172.024 214.999 169.456C213.935 166.885 212.871 164.386 212.073 162.531C211.674 161.603 211.342 160.835 211.109 160.299C210.993 160.031 210.901 159.821 210.839 159.678C210.807 159.607 210.783 159.552 210.767 159.515C210.759 159.496 210.753 159.482 210.749 159.473C210.747 159.468 210.745 159.464 210.744 159.462C210.744 159.461 210.743 159.46 210.743 159.459C210.743 159.459 210.743 159.459 210.743 159.458C210.743 159.458 210.743 159.458 209.369 160.06ZM216.358 181.68C216.358 181.607 216.365 181.823 215.85 182.339C215.395 182.794 214.744 183.274 214.026 183.727C213.321 184.173 212.607 184.559 212.064 184.835C211.794 184.972 211.57 185.08 211.416 185.153C211.338 185.19 211.278 185.218 211.239 185.236C211.219 185.245 211.205 185.252 211.195 185.256C211.191 185.258 211.188 185.259 211.186 185.26C211.185 185.261 211.184 185.261 211.184 185.261C211.184 185.261 211.184 185.261 211.184 185.261C211.184 185.261 211.184 185.261 211.184 185.261C211.185 185.261 211.185 185.261 211.797 186.63C212.409 187.999 212.41 187.999 212.41 187.999C212.41 187.999 212.41 187.999 212.41 187.999C212.411 187.999 212.411 187.998 212.412 187.998C212.413 187.998 212.415 187.997 212.417 187.996C212.421 187.994 212.427 187.992 212.433 187.988C212.447 187.982 212.467 187.973 212.491 187.962C212.541 187.939 212.611 187.907 212.699 187.865C212.876 187.781 213.126 187.66 213.424 187.509C214.018 187.206 214.819 186.775 215.629 186.263C216.427 185.759 217.291 185.141 217.973 184.458C218.594 183.836 219.358 182.873 219.358 181.68H216.358ZM166.554 139.376C172.013 132.896 179.852 129.327 186.952 130.49L187.436 127.53C179.03 126.153 170.207 130.384 164.26 137.444L166.554 139.376ZM186.941 130.488C187.965 130.664 188.971 130.934 189.946 131.296L190.991 128.484C189.841 128.057 188.655 127.738 187.447 127.531L186.941 130.488ZM214.821 133.266C220.589 127.985 227.708 126.197 233.323 128.792L234.582 126.068C227.517 122.803 219.129 125.255 212.795 131.054L214.821 133.266ZM233.322 128.791C234.15 129.175 234.937 129.647 235.667 130.197L237.474 127.802C236.574 127.124 235.605 126.543 234.584 126.069L233.322 128.791Z" fill="#050504"/>
<path d="M192.28 198.112C195.248 205.052 205.516 206.72 210.195 205.933" stroke="white" stroke-width="3" stroke-miterlimit="10" stroke-linecap="round"/>
<path d="M186.785 164.24C189.885 164.24 192.398 160.793 192.398 156.54C192.398 152.287 189.885 148.84 186.785 148.84C183.685 148.84 181.171 152.287 181.171 156.54C181.171 160.793 183.685 164.24 186.785 164.24Z" fill="#050504"/>
<path d="M190.477 153.76C188.974 148.04 181.46 147.15 176.026 151.91" stroke="#050504" stroke-width="3" stroke-linecap="round"/>
<path d="M230.697 161.46C233.797 161.46 236.31 158.013 236.31 153.76C236.31 149.507 233.797 146.06 230.697 146.06C227.597 146.06 225.084 149.507 225.084 153.76C225.084 158.013 227.597 161.46 230.697 161.46Z" fill="#050504"/>
<path d="M234.39 150.98C232.887 145.26 225.372 144.37 219.938 149.13" stroke="#050504" stroke-width="3" stroke-linecap="round"/>
</g>
<defs>
<clipPath id="clip0_104_972">
<rect width="340" height="340" rx="170" fill="white"/>
</clipPath>
</defs>
</svg>
