<svg width="500" height="194" viewBox="0 0 500 194" fill="none" xmlns="http://www.w3.org/2000/svg">
<path fill-rule="evenodd" clip-rule="evenodd" d="M441.213 43.7529C440.877 46.4722 440.374 49.1681 439.704 51.8249C437.49 60.8955 434.308 69.702 430.214 78.093C427.483 84.1282 424.812 89.1072 420.98 96.455L416.167 105.81C409.317 118.921 402.829 131.263 395.828 144.42L393.52 148.72C391.664 152.175 389.431 156.264 387.666 159.568C385.704 163.098 384.211 165.769 383.984 166.041C385.222 163.476 388.239 157.44 391.257 151.601C396.281 141.794 403.327 128.245 408.336 118.815C412.138 111.573 416.001 104.255 419.697 97.2245C423.394 90.1935 427.241 83.0419 430.515 75.9807C432.916 70.9779 435.061 65.8565 436.943 60.6363C438.886 55.1529 440.315 49.5008 441.213 43.7529Z" fill="black"/>
<path fill-rule="evenodd" clip-rule="evenodd" d="M433.609 64.0157C433.587 63.6589 433.587 63.3012 433.609 62.9444C433.529 61.7246 433.264 60.524 432.824 59.3837C432.628 59.0065 432.462 58.6444 432.251 58.2974C432.036 57.9045 431.68 57.6078 431.255 57.4675C431.056 57.4368 430.852 57.4614 430.666 57.5386C430.479 57.6157 430.318 57.7425 430.199 57.9051C429.903 58.2276 429.681 58.6106 429.548 59.0274C429.415 59.4443 429.375 59.885 429.429 60.3191C429.616 61.1949 430.108 61.9757 430.817 62.522L431.315 62.8841C431.759 63.1591 432.218 63.4109 432.688 63.6385C433.003 63.7667 433.282 63.9685 433.503 64.2269C432.786 64.1147 432.093 63.8853 431.451 63.5479C430.673 63.1822 429.998 62.6272 429.49 61.9336C428.957 61.2202 428.73 60.325 428.856 59.444C428.961 58.8645 429.198 58.3171 429.55 57.8447C429.714 57.5699 429.949 57.3448 430.23 57.1933C430.512 57.0418 430.83 56.9697 431.149 56.9847C431.466 57.0299 431.768 57.149 432.03 57.3325C432.292 57.516 432.507 57.7587 432.658 58.0409C432.939 58.5174 433.167 59.0233 433.337 59.5496C433.57 60.2631 433.712 61.0033 433.759 61.7525C433.834 62.51 433.783 63.2746 433.609 64.0157V64.0157Z" fill="black"/>
<path fill-rule="evenodd" clip-rule="evenodd" d="M438.18 61.1042C438.482 61.3456 438.889 61.2098 439.236 61.1042C440.378 60.743 441.468 60.2359 442.48 59.5954C443.099 59.0371 443.823 58.7052 444.245 57.7999C444.316 57.6133 444.343 57.4131 444.325 57.2144C444.307 57.0157 444.243 56.8238 444.14 56.6533C443.702 55.9894 442.631 56.2308 441.922 56.6533C441.125 57.0446 440.44 57.631 439.93 58.3582C439.808 58.5158 439.697 58.6822 439.598 58.8561C439.355 59.2939 439.168 59.7601 439.04 60.2442C438.967 60.5606 438.85 60.8653 438.693 61.1495C438.62 60.8587 438.595 60.5581 438.618 60.2593C438.672 59.8418 438.773 59.4318 438.919 59.0372C439.222 58.2492 439.702 57.5418 440.322 56.9701C440.944 56.3899 441.702 55.9748 442.525 55.7631C442.827 55.6682 443.147 55.6461 443.459 55.6986C443.771 55.751 444.067 55.8765 444.321 56.0648C444.554 56.2901 444.719 56.5769 444.797 56.8919C444.874 57.2069 444.861 57.5374 444.758 57.8452C444.3 58.8635 443.506 59.6942 442.51 60.1989C441.864 60.5568 441.174 60.8306 440.458 61.0137C440.088 61.1278 439.71 61.2135 439.327 61.2702C439.131 61.2702 438.95 61.2702 438.753 61.2702C438.652 61.2962 438.545 61.2944 438.444 61.2653C438.343 61.2361 438.252 61.1805 438.18 61.1042V61.1042Z" fill="black"/>
<path fill-rule="evenodd" clip-rule="evenodd" d="M440.745 42.5157C440.819 42.1517 440.875 41.7841 440.911 41.4143C440.932 40.7892 440.82 40.1668 440.58 39.589C440.341 39.0112 439.98 38.4915 439.523 38.0648C439.174 37.7801 438.77 37.5691 438.337 37.4447C437.904 37.3202 437.45 37.2848 437.003 37.3406C436.56 37.4318 436.152 37.6462 435.826 37.9592C435.473 38.2424 435.213 38.6259 435.081 39.0594C434.949 39.4928 434.951 39.9561 435.087 40.3883C435.465 41.2589 436.102 41.9914 436.913 42.4855L437.456 42.8024C437.929 43.0583 438.437 43.2415 438.965 43.3456C439.478 43.4814 439.885 43.5568 439.93 43.6624C439.187 43.7605 438.431 43.6563 437.742 43.3607C436.925 43.0485 436.184 42.5649 435.57 41.9424C435.239 41.6401 434.975 41.2717 434.796 40.861C434.617 40.4504 434.526 40.0066 434.529 39.5585C434.588 38.9536 434.836 38.3824 435.236 37.9252C435.636 37.4679 436.17 37.1474 436.762 37.0086C437.334 36.9044 437.922 36.9436 438.475 37.1226C439.028 37.3017 439.528 37.615 439.93 38.0346C440.467 38.6241 440.819 39.3588 440.941 40.1469C441.067 40.9408 440.999 41.7533 440.745 42.5157V42.5157Z" fill="black"/>
<path fill-rule="evenodd" clip-rule="evenodd" d="M440.911 42.3798C441.119 42.3943 441.324 42.4454 441.514 42.5307C441.862 42.6276 442.189 42.7861 442.48 42.9984C442.633 43.1239 442.75 43.2878 442.819 43.4734C442.888 43.659 442.906 43.8596 442.872 44.0546C442.872 44.643 442.39 44.99 441.801 45.2918C441.546 45.4406 441.264 45.5379 440.971 45.5784C440.652 45.6274 440.326 45.5904 440.026 45.471C439.727 45.3516 439.464 45.1543 439.266 44.8995C439.062 44.6378 438.942 44.3198 438.923 43.9881C438.904 43.6564 438.987 43.3269 439.161 43.0437C439.272 42.9342 439.399 42.8426 439.538 42.7721C439.816 42.5742 440.136 42.4449 440.473 42.3949C440.669 42.3304 440.881 42.3304 441.077 42.3949C440.7 42.5315 440.332 42.6928 439.975 42.8777C439.801 42.9768 439.662 43.1267 439.576 43.3074C439.489 43.4881 439.46 43.6909 439.493 43.8886C439.521 44.0765 439.589 44.2565 439.69 44.4174C439.791 44.5783 439.924 44.7167 440.081 44.824C440.317 44.9345 440.575 44.9918 440.835 44.9918C441.096 44.9918 441.354 44.9345 441.59 44.824C442.088 44.6279 442.54 44.2205 442.556 43.8283C442.567 43.6555 442.536 43.4826 442.465 43.3248C442.394 43.1669 442.285 43.0289 442.148 42.923C441.773 42.6668 441.353 42.4826 440.911 42.3798V42.3798Z" fill="black"/>
<path fill-rule="evenodd" clip-rule="evenodd" d="M442.239 44.3865C442.576 44.2833 442.919 44.1977 443.265 44.13C444.374 43.7039 445.396 43.0802 446.282 42.2892C446.914 41.7481 447.375 41.0353 447.61 40.2373C447.625 40.0459 447.593 39.8537 447.517 39.6775C447.441 39.5013 447.322 39.3464 447.173 39.2264C446.829 38.9883 446.434 38.8343 446.02 38.7766C445.606 38.719 445.184 38.7593 444.789 38.8944C443.927 39.0861 443.115 39.4562 442.405 39.9808L441.937 40.358C441.573 40.6568 441.289 41.0402 441.107 41.4745C440.995 41.7516 440.953 42.0524 440.987 42.3496C440.874 42.2391 440.79 42.1036 440.74 41.9541C440.69 41.8046 440.676 41.6454 440.7 41.4896C440.766 41.0493 440.954 40.6364 441.243 40.2976C441.781 39.6662 442.444 39.1526 443.189 38.7888C443.927 38.4276 444.725 38.2075 445.543 38.14C446.141 38.092 446.74 38.2233 447.263 38.5172C447.539 38.6798 447.767 38.9115 447.926 39.1893C448.085 39.4671 448.168 39.7815 448.168 40.1015C448.124 40.692 447.892 41.2527 447.505 41.7008C447.17 42.109 446.79 42.4784 446.373 42.8022C445.788 43.2436 445.143 43.5992 444.457 43.8584C443.744 44.1324 442.998 44.31 442.239 44.3865V44.3865Z" fill="black"/>
<path fill-rule="evenodd" clip-rule="evenodd" d="M441.997 44.4015C441.979 44.71 441.902 45.0121 441.771 45.2918C441.453 46.3326 440.814 47.2462 439.945 47.9019C439.33 48.4442 438.569 48.7955 437.758 48.9129C437.336 49.0108 436.897 49.0108 436.475 48.9129C436.243 48.8459 436.027 48.7324 435.84 48.5794C435.654 48.4264 435.5 48.237 435.389 48.0227C435.188 47.6089 435.085 47.1547 435.087 46.6949C435.092 46.2387 435.19 45.7882 435.374 45.3707C435.558 44.9532 435.825 44.5774 436.158 44.2657C436.307 44.1296 436.469 44.0083 436.641 43.9037C437.097 43.6246 437.616 43.4639 438.15 43.4359C438.305 43.4169 438.463 43.4327 438.612 43.4823C438.761 43.5319 438.897 43.614 439.01 43.7226C438.427 43.7804 437.857 43.928 437.32 44.1602C436.744 44.4485 436.282 44.9223 436.008 45.5053C435.735 46.0883 435.665 46.7466 435.811 47.3739C435.92 47.7442 436.168 48.0585 436.502 48.2522C436.836 48.4458 437.231 48.5041 437.607 48.4149C438.441 48.2997 439.228 47.9609 439.885 47.4342C440.381 47.0884 440.819 46.6657 441.183 46.1819C441.565 45.6455 441.841 45.0413 441.997 44.4015V44.4015Z" fill="black"/>
<path fill-rule="evenodd" clip-rule="evenodd" d="M442.239 43.9644C442.543 43.9034 442.855 43.9034 443.159 43.9644C443.694 43.9422 444.227 44.039 444.72 44.2477C445.214 44.4564 445.654 44.7719 446.011 45.1714C446.295 45.4621 446.514 45.8107 446.652 46.1934C446.79 46.5761 446.844 46.9839 446.81 47.3893C446.801 47.8286 446.671 48.2568 446.433 48.6266C446.174 49.0202 445.807 49.3316 445.377 49.5241C444.947 49.7165 444.47 49.782 444.004 49.7129C443.56 49.5879 443.147 49.3699 442.793 49.0733C442.44 48.7768 442.153 48.4085 441.952 47.9928C441.877 47.8269 441.786 47.6609 441.711 47.4648C441.527 47.013 441.42 46.5336 441.394 46.0465C441.394 45.5637 441.545 45.2167 441.65 45.1865C441.764 45.7607 441.92 46.3256 442.118 46.8764C442.358 47.4747 442.724 48.0148 443.189 48.4606C443.382 48.6598 443.619 48.8093 443.882 48.896C444.145 48.9828 444.425 49.0042 444.698 48.9585C445.068 48.8795 445.408 48.6949 445.676 48.4272C445.943 48.1595 446.128 47.82 446.207 47.4497C446.262 47.0669 446.233 46.6765 446.121 46.3063C446.009 45.936 445.817 45.595 445.558 45.3072C445.154 44.8451 444.641 44.4923 444.064 44.2812C443.481 44.0616 442.862 43.9541 442.239 43.9644V43.9644Z" fill="black"/>
<path fill-rule="evenodd" clip-rule="evenodd" d="M73.7161 20.3365L71.9659 30.038C70.1549 41.0876 69.0312 52.2389 68.6013 63.4276C68.3495 71.6337 68.6115 79.8475 69.3859 88.0209C69.7781 92.3059 70.5024 96.4852 71.1964 100.514C72.7502 109.054 75.2815 117.387 78.7404 125.348C82.2655 133.33 86.625 140.916 91.7462 147.98C92.8627 149.489 93.9792 150.998 95.2918 152.627C98.355 156.472 101.64 160.134 105.129 163.596C108.539 167.051 111.3 169.45 111.542 169.828C110.244 168.726 107.951 166.961 105.506 164.562C102.723 161.973 100.075 159.244 97.5701 156.384C87.672 145.24 79.9907 132.31 74.9382 118.287C71.6663 109.029 69.5629 99.3992 68.6767 89.6202C67.7099 80.0964 67.4829 70.512 67.9978 60.9532C68.3599 54.1032 69.1143 47.5249 70.0195 41.0069C71.0757 34.0212 72.328 27.1562 73.7161 20.3365Z" fill="black"/>
<path fill-rule="evenodd" clip-rule="evenodd" d="M67.5753 41.2634C67.4692 40.8708 67.3836 40.4729 67.3188 40.0714C66.9181 38.7548 66.3768 37.4852 65.7044 36.2844L64.9198 35.1075C64.6437 34.6668 64.3029 34.2701 63.9089 33.9307C63.8349 33.8573 63.7456 33.8011 63.6475 33.7662C63.5493 33.7312 63.4446 33.7183 63.3409 33.7284C63.2372 33.7384 63.137 33.7713 63.0474 33.8245C62.9578 33.8777 62.881 33.95 62.8226 34.0363C62.5984 34.4676 62.519 34.9596 62.5962 35.4395C62.6553 35.9358 62.7928 36.4196 63.0036 36.8728C63.4534 37.8025 64.1149 38.6138 64.9349 39.2416L65.478 39.6641C65.9458 40.0111 66.5342 40.343 66.9868 40.6448C67.4395 40.9465 67.8016 41.3388 67.8016 41.4595C67.0148 41.2453 66.2665 40.9093 65.5836 40.4637C64.7605 39.9895 64.0171 39.3887 63.3808 38.6834C62.7414 37.9571 62.2861 37.0877 62.0531 36.1486C61.8877 35.495 61.8877 34.8106 62.0531 34.157C62.1152 33.9646 62.2153 33.7867 62.3475 33.6338C62.4796 33.4809 62.6412 33.3561 62.8226 33.2668C63.0124 33.1919 63.2178 33.165 63.4205 33.1887C63.6232 33.2124 63.8169 33.2859 63.9843 33.4026C64.4979 33.7897 64.9331 34.271 65.2668 34.8209C65.6012 35.3064 65.9085 35.8101 66.1872 36.3297C66.5582 37.0789 66.8563 37.862 67.0774 38.6683C67.3563 39.5078 67.5237 40.3803 67.5753 41.2634V41.2634Z" fill="black"/>
<path fill-rule="evenodd" clip-rule="evenodd" d="M70.8947 49.3201C71.2369 49.2204 71.5845 49.1398 71.9357 49.0787C73.0777 48.6746 74.1589 48.1162 75.1495 47.419C75.8456 46.899 76.4608 46.2786 76.9751 45.5783C77.0872 45.4118 77.1649 45.2247 77.2038 45.0278C77.2427 44.8309 77.2418 44.6282 77.2014 44.4316C77.0958 44.0997 76.6884 44.0695 76.281 44.1902C75.862 44.3439 75.4579 44.5359 75.074 44.7636C74.2939 45.2301 73.5914 45.8155 72.9919 46.4987L72.6147 46.9815C72.3121 47.3908 72.0446 47.8248 71.815 48.279C71.674 48.5514 71.5676 48.8403 71.4982 49.139C71.3891 49.0123 71.3172 48.8578 71.2906 48.6926C71.2639 48.5275 71.2836 48.3582 71.3473 48.2036C71.4707 47.797 71.6429 47.4069 71.8603 47.0418C72.2849 46.311 72.8249 45.6537 73.4596 45.0955C74.0858 44.5474 74.7999 44.1087 75.5719 43.7979C75.8524 43.6226 76.1766 43.5297 76.5074 43.5297C76.8382 43.5297 77.1623 43.6226 77.4428 43.7979C77.583 43.9254 77.6884 44.0865 77.7491 44.266C77.8098 44.4455 77.8238 44.6375 77.7898 44.8239C77.7517 45.1266 77.6543 45.4188 77.5032 45.6839C76.9148 46.6084 76.1193 47.3832 75.1796 47.9471C74.542 48.3321 73.864 48.6458 73.1578 48.8825C72.4252 49.1242 71.6646 49.2713 70.8947 49.3201V49.3201Z" fill="black"/>
<path fill-rule="evenodd" clip-rule="evenodd" d="M73.7763 19.3857C73.6824 19.1141 73.6364 18.8282 73.6406 18.5408C73.5709 18.0402 73.6237 17.5302 73.7945 17.0546C73.9653 16.5789 74.249 16.1518 74.6213 15.8099C74.8936 15.5455 75.2228 15.3468 75.5837 15.2292C75.9445 15.1115 76.3275 15.0779 76.7034 15.1309C77.104 15.1822 77.4839 15.3384 77.8048 15.5836C78.1449 15.843 78.3969 16.2008 78.5265 16.6084C78.6561 17.0161 78.657 17.4537 78.529 17.8619C78.2306 18.6179 77.703 19.2616 77.0202 19.7026C76.866 19.8001 76.7046 19.8859 76.5374 19.9591C76.1274 20.1582 75.6901 20.2955 75.2399 20.3665C74.8023 20.3665 74.4704 20.3665 74.4251 20.2307C74.9747 20.1239 75.5146 19.9725 76.0395 19.7781C76.6078 19.51 77.1199 19.1362 77.5483 18.6766C77.9621 18.281 78.2056 17.7399 78.2273 17.1678C78.1756 16.7925 78.013 16.4412 77.7603 16.1589C77.5076 15.8766 77.1764 15.6763 76.809 15.5836C76.433 15.5132 76.0456 15.5354 75.6801 15.6485C75.3147 15.7615 74.9823 15.962 74.7118 16.2324C74.3034 16.6146 74.0151 17.1074 73.882 17.6506C73.7273 18.2155 73.6913 18.8063 73.7763 19.3857V19.3857Z" fill="black"/>
<path fill-rule="evenodd" clip-rule="evenodd" d="M73.5803 19.2351C73.4307 19.3033 73.2738 19.3539 73.1126 19.386C72.8575 19.4655 72.6341 19.6235 72.4742 19.8376C72.3143 20.0516 72.2262 20.3108 72.2224 20.5779C72.3876 20.9153 72.6727 21.1789 73.022 21.3172C73.2017 21.3772 73.3911 21.4028 73.5803 21.3926C73.7577 21.4065 73.9357 21.3766 74.0988 21.3056C74.2619 21.2346 74.4051 21.1246 74.5157 20.9853C74.6261 20.8557 74.6963 20.6968 74.7177 20.528C74.7392 20.3592 74.7109 20.1878 74.6364 20.0347C74.6012 19.9675 74.5553 19.9064 74.5007 19.8537C74.3282 19.7136 74.1347 19.6016 73.9273 19.5218C73.7161 19.4312 73.535 19.3256 73.535 19.2653C73.8761 19.2169 74.2239 19.2748 74.5308 19.4312C74.7449 19.5195 74.9272 19.6706 75.0538 19.8645C75.1804 20.0584 75.2453 20.2861 75.24 20.5176C75.2336 20.7479 75.1745 20.9738 75.0673 21.1778C74.96 21.3818 74.8075 21.5585 74.6214 21.6944C74.3678 21.8573 74.0774 21.9536 73.7768 21.9747C73.4762 21.9958 73.1751 21.9409 72.9013 21.8151C72.6046 21.7294 72.3413 21.5547 72.147 21.3145C71.9527 21.0744 71.8368 20.7804 71.815 20.4723C71.8393 20.2618 71.9173 20.0611 72.0415 19.8893C72.1656 19.7176 72.3318 19.5806 72.5241 19.4916C72.8553 19.3358 73.2146 19.2485 73.5803 19.2351V19.2351Z" fill="black"/>
<path fill-rule="evenodd" clip-rule="evenodd" d="M72.5694 20.7892C72.2949 20.7835 72.0239 20.7273 71.7698 20.6233C70.8472 20.4236 69.9905 19.9927 69.2803 19.371C68.669 18.9738 68.232 18.3588 68.0581 17.651C68.0208 17.446 68.0329 17.2351 68.0932 17.0357C68.1535 16.8363 68.2605 16.6541 68.4052 16.5043C68.7168 16.2444 69.088 16.0657 69.4855 15.984C69.883 15.9024 70.2946 15.9205 70.6834 16.0365C71.447 16.1857 72.1652 16.5112 72.7807 16.9871C72.9187 17.0888 73.0498 17.1997 73.1729 17.319C73.5174 17.6264 73.7595 18.0318 73.867 18.4808C73.867 19.0089 73.5803 19.2804 73.52 19.2352C73.5589 18.9978 73.5347 18.7545 73.45 18.5294C73.3653 18.3043 73.2229 18.1054 73.0372 17.9527C72.5955 17.5438 72.0846 17.2168 71.5284 16.9871C71.0082 16.7585 70.4511 16.6256 69.8838 16.5948C69.1596 16.5948 68.4957 16.972 68.5108 17.5001C68.5259 18.0281 69.1445 18.6618 69.6575 19.1597C70.0404 19.5285 70.46 19.8571 70.9098 20.1405C71.4278 20.4376 71.9871 20.6563 72.5694 20.7892V20.7892Z" fill="black"/>
<path fill-rule="evenodd" clip-rule="evenodd" d="M72.6749 20.8951C72.7805 21.0912 72.7956 21.3779 72.8862 21.6042C73.26 22.3481 73.8089 22.9901 74.4855 23.4751C74.9838 23.7872 75.5367 24.0022 76.115 24.1088C76.4021 24.1326 76.6909 24.0913 76.9599 23.9881C77.2138 23.8824 77.424 23.6932 77.5557 23.4517C77.6874 23.2103 77.7327 22.9311 77.6841 22.6604C77.6569 22.0866 77.4081 21.5457 76.9901 21.1516C76.8994 21.0595 76.7981 20.9784 76.6883 20.9102C76.4056 20.7323 76.0942 20.6047 75.768 20.533C75.4511 20.4425 75.1795 20.367 75.1343 20.2765C75.3692 20.1618 75.6272 20.1022 75.8887 20.1022C76.1501 20.1022 76.4081 20.1618 76.6431 20.2765C77.2247 20.5084 77.6984 20.9498 77.9708 21.5137C78.2492 22.0741 78.329 22.7125 78.1971 23.3242C78.1493 23.5501 78.0566 23.764 77.9244 23.9532C77.7922 24.1424 77.6232 24.3031 77.4276 24.4257C77.0378 24.6282 76.5972 24.7122 76.1602 24.6671C75.3695 24.59 74.6241 24.2622 74.0328 23.7316C73.6384 23.371 73.3204 22.9349 73.0974 22.4491C72.8564 21.9637 72.7129 21.4357 72.6749 20.8951V20.8951Z" fill="black"/>
<path fill-rule="evenodd" clip-rule="evenodd" d="M72.5693 20.4724C72.3231 20.4875 72.0762 20.4875 71.83 20.4724C71.0238 20.5699 70.2821 20.9622 69.7479 21.5738C69.4279 22.0433 69.2739 22.6062 69.3103 23.1731C69.3645 23.4368 69.4958 23.6783 69.6875 23.8672C69.849 24.0705 70.0602 24.2287 70.3007 24.3265C70.5413 24.4243 70.803 24.4584 71.0605 24.4254C71.5794 24.2488 72.0076 23.8747 72.2524 23.3844C72.3267 23.2739 72.3923 23.1579 72.4486 23.0374C72.5865 22.7342 72.7024 22.4216 72.7956 22.1019C72.9012 21.7699 72.9918 21.5135 73.0974 21.4682C73.2664 21.9569 73.2664 22.4883 73.0974 22.977C72.9423 23.541 72.6523 24.0588 72.2524 24.4858C72.0336 24.7427 71.7513 24.9378 71.4337 25.0516C71.116 25.1654 70.7741 25.194 70.4419 25.1346C70.0022 25.0521 69.5991 24.835 69.2882 24.5133C68.9774 24.1917 68.7742 23.7813 68.7068 23.3391C68.6586 22.9291 68.7072 22.5135 68.8487 22.1257C68.9902 21.7379 69.2206 21.3887 69.5215 21.1061C69.9463 20.7357 70.4713 20.4994 71.0303 20.4271C71.5409 20.3354 72.065 20.3508 72.5693 20.4724V20.4724Z" fill="black"/>
<path fill-rule="evenodd" clip-rule="evenodd" d="M66.4739 66.5054C66.397 66.2452 66.3514 65.9767 66.3381 65.7057C66.105 64.8208 65.7495 63.9727 65.282 63.186C64.9122 62.6453 64.493 62.1402 64.0297 61.6772C63.9383 61.5656 63.8189 61.4802 63.6837 61.4299C63.5485 61.3795 63.4024 61.3659 63.2602 61.3905C62.7321 61.4962 63.1395 62.3562 63.3809 62.8993C63.6702 63.5236 64.0405 64.107 64.4823 64.6344L64.7841 64.9815C65.043 65.271 65.3257 65.5385 65.629 65.7811C65.9006 66.0527 66.0816 66.3092 66.0515 66.4299C65.525 66.2774 65.0469 65.9916 64.6634 65.6001C63.7233 64.7579 63.0165 63.6874 62.6114 62.492C62.5332 62.278 62.4825 62.0549 62.4605 61.8281C62.4415 61.6789 62.4606 61.5273 62.516 61.3875C62.5714 61.2476 62.6613 61.1241 62.7774 61.0285C63.0071 60.8643 63.2904 60.7933 63.5704 60.8297C63.8503 60.8661 64.1061 61.0072 64.2862 61.2246C64.8923 61.7864 65.402 62.4439 65.795 63.1709C66.0317 63.6536 66.2187 64.1592 66.3532 64.6797C66.4515 65.283 66.4919 65.8944 66.4739 66.5054V66.5054Z" fill="black"/>
<path d="M63.0188 177.055C62.8381 177.071 62.6564 177.071 62.4757 177.055C58.6886 177.055 15.8691 176.648 34.4423 182.306C53.8605 188.235 121.952 188.567 152.943 185.927C177.301 184.127 201.786 185.201 225.893 189.125C242.595 191.841 277.72 196.398 291.541 189.231C300.186 184.705 315.832 185.323 330.03 187.179C359.719 191.221 389.771 191.874 419.607 189.125C444.185 186.742 458.836 179.258 419.607 176.044C419.367 176.027 419.13 175.987 418.898 175.923L402.301 171.774C399.842 171.412 396.96 172.83 394.923 174.113C394.116 174.631 393.166 174.88 392.208 174.823C391.251 174.766 390.337 174.406 389.597 173.796C388.989 173.296 388.261 172.963 387.485 172.83L353.235 166.961C352.994 166.946 352.752 166.946 352.511 166.961L193.213 165.8L122.646 164.698C122.182 164.683 121.718 164.744 121.273 164.879L90.9466 173.932C90.6854 174.01 90.4178 174.066 90.1469 174.098L63.0188 177.055Z" fill="#FFD6B9"/>
<path opacity="0.33" d="M99.6372 170.22H99.1997C96.1821 170.22 61.6609 169.858 76.5678 174.746C92.214 179.831 147.074 180.118 171.999 177.854C191.61 176.307 211.338 177.225 230.721 180.585C244.165 182.924 272.454 186.832 283.529 180.691C290.484 176.843 303.143 177.326 314.535 178.926C338.444 182.396 362.687 182.953 386.73 180.585C406.526 178.548 418.279 172.121 386.73 169.345C386.532 169.329 386.336 169.299 386.142 169.254L372.729 165.678C370.573 165.646 368.473 166.36 366.784 167.7C366.143 168.133 365.375 168.342 364.603 168.293C363.83 168.244 363.096 167.94 362.514 167.429V167.429C362.036 166.996 361.445 166.709 360.809 166.599L333.229 161.544C333.033 161.529 332.836 161.529 332.64 161.544L204.393 160.533L147.572 159.583C147.198 159.584 146.827 159.64 146.47 159.749L122.043 167.549L121.409 167.685L99.6372 170.22Z" fill="#DDB499"/>
<path d="M385.644 123.915V161.801C385.644 164.082 384.738 166.269 383.125 167.882C381.512 169.495 379.325 170.401 377.044 170.401H125.588C123.306 170.401 121.117 169.495 119.502 167.883C117.887 166.27 116.977 164.083 116.973 161.801" stroke="#7C7C7C" stroke-width="1.50879" stroke-miterlimit="10" stroke-linecap="round"/>
<path d="M100.769 175.365C100.769 175.365 1.67129 190.453 0.0267018 91.7473C0.0267018 91.7473 -0.471199 78.6359 2.83306 77.6552C6.13731 76.6745 11.8858 80.3862 17.4834 96.3492C22.5228 110.743 30.972 148.357 109.656 174.701L100.769 175.365Z" fill="#E5AC62"/>
<path d="M101.976 169.797C101.976 169.797 64.437 149.791 60.9366 105.025C57.4362 60.2589 57.8134 -2.49181 42.9367 0.525772C28.06 3.54336 19.8974 36.1635 21.4213 60.0929C22.6887 79.8279 25.9477 107.484 48.8059 133.933C56.4541 142.61 65.3291 150.123 75.1495 156.233C104.692 175.018 109.656 174.339 109.656 174.339L101.976 169.797Z" fill="#B44538"/>
<path d="M129.692 175.244C130.764 176.165 133.811 178.337 124.049 175.818C105.944 171.125 58.9299 143.439 76.8996 66.0078C77.4428 63.639 81.426 59.1579 82.105 65.6306C84.2324 86.5274 99.0035 148.644 129.692 175.244Z" fill="#7F265B"/>
<path d="M355.302 174.234C356.373 175.154 359.421 177.327 349.659 174.807C331.554 170.13 284.54 142.428 302.494 64.9971C303.053 62.6283 307.021 58.1472 307.715 64.6199C309.782 85.5016 324.613 147.634 355.302 174.234Z" fill="#7F265B"/>
<path d="M95.6086 119.6C95.6086 119.6 87.2348 75.453 93.7981 61.6626C102.112 44.1455 101.553 131.565 103.877 138.611C103.877 138.536 96.1216 121.848 95.6086 119.6Z" fill="#E5AC62"/>
<path d="M155.176 174.852C154.995 176.633 158.088 177.085 159.702 176.24C169.419 170.899 186 148.101 177.461 112.267C167.955 72.2693 157.258 154.634 155.176 174.852Z" fill="#B44538"/>
<path d="M218.666 175.44C218.379 176.436 219.964 176.949 220.869 176.663C226.542 174.611 237.662 163.34 236.983 142.232C236.228 118.665 221.91 164.215 218.666 175.44Z" fill="#7F265B"/>
<path d="M161.015 177.055C161.015 177.055 135.365 183.633 139.514 104.859C143.664 26.0849 150.076 135.804 150.076 135.804C150.076 135.804 151.585 174.701 161.015 177.055Z" fill="#7F265B"/>
<path d="M359.195 175.666C359.195 175.666 333.545 182.245 337.695 103.471C341.844 24.6966 348.256 134.401 348.256 134.401C348.256 134.401 349.765 173.252 359.195 175.666Z" fill="#7F265B"/>
<path d="M159.265 176.662C159.265 176.662 162.614 141.07 182.244 127.355C199.957 114.998 175.846 164.698 164.968 176.406C163.791 177.688 160.532 177.296 159.265 176.662Z" fill="#E5AC62"/>
<path d="M199.429 173.057C199.429 173.057 202.763 137.464 222.408 123.749C240.121 111.377 215.995 161.077 205.132 172.785C203.94 174.037 200.681 173.675 199.429 173.057Z" fill="#E5AC62"/>
<path d="M380.378 177.175C380.378 177.175 446.448 128.29 469.322 137.494C492.195 146.698 396.115 179.303 380.378 177.175Z" fill="#B44538"/>
<path d="M369.228 177.87C369.228 177.87 398.197 153.065 413.119 122.346C428.041 91.6269 448.893 49.4863 490.158 50.5727C531.423 51.659 420.588 146.698 420.588 146.698C420.588 146.698 399.691 167.263 380.439 176.391C379.835 176.678 379.277 177.01 378.703 177.341C377.299 178.228 375.692 178.742 374.034 178.834C372.376 178.927 370.722 178.595 369.228 177.87V177.87Z" fill="#E5AC62"/>
<path d="M356.554 177.266C356.554 177.266 373.996 133.3 380.529 118.212C386.76 103.728 409.196 73.0389 421.659 72.5561C434.846 72.0582 375.475 168.304 366.135 177.297C366.135 177.266 363.495 174.038 356.554 177.266Z" fill="#7F265B"/>
<path d="M356.751 176.708C356.751 176.708 333.923 150.228 353.99 126.751C374.056 103.275 356.751 176.708 356.751 176.708Z" fill="#E5AC62"/>
<path d="M269.406 177.266C269.406 177.266 246.594 150.801 266.645 127.325C286.697 103.848 269.406 177.266 269.406 177.266Z" fill="#E5AC62"/>
<path d="M199.64 174.218C199.64 174.218 176.827 147.739 196.879 124.262C216.931 100.785 199.64 174.218 199.64 174.218Z" fill="#B44538"/>
<path d="M291.556 173.208C291.556 173.208 268.743 146.728 288.795 123.251C308.846 99.7745 291.556 173.208 291.556 173.208Z" fill="#B44538"/>
<path d="M268.894 177.146C268.894 177.146 237.948 160.911 247.921 131.791C257.894 102.672 268.894 177.146 268.894 177.146Z" fill="#7F265B"/>
<path d="M345.782 175.078C345.782 175.078 329.864 169.677 334.828 159.161C334.828 159.161 343.654 148.75 348.15 171.714C348.238 172.092 348.245 172.485 348.17 172.866C348.096 173.247 347.942 173.608 347.718 173.925C347.494 174.243 347.206 174.51 346.873 174.708C346.539 174.907 346.167 175.033 345.782 175.078V175.078Z" fill="#B44538"/>
<path d="M248.887 174.429C248.887 174.429 232.954 169.028 237.933 158.512C237.933 158.512 246.759 148.101 251.241 171.065C251.331 171.442 251.34 171.834 251.267 172.215C251.194 172.596 251.042 172.958 250.82 173.276C250.597 173.594 250.31 173.861 249.977 174.06C249.644 174.258 249.272 174.384 248.887 174.429V174.429Z" fill="#B44538"/>
<path d="M196.818 175.078C196.818 175.078 180.901 169.677 185.865 159.161C185.865 159.161 194.691 148.75 199.187 171.714C199.272 172.092 199.277 172.484 199.202 172.864C199.126 173.244 198.972 173.604 198.749 173.921C198.526 174.238 198.239 174.505 197.906 174.704C197.574 174.903 197.203 175.031 196.818 175.078V175.078Z" fill="#7F265B"/>
<path d="M136.421 176.24C136.421 176.24 152.339 170.839 147.375 160.322C147.375 160.322 138.549 149.912 134.053 172.876C133.965 173.254 133.958 173.646 134.033 174.028C134.107 174.409 134.261 174.77 134.485 175.087C134.709 175.405 134.997 175.672 135.33 175.87C135.664 176.069 136.036 176.195 136.421 176.24Z" fill="#E5AC62"/>
<path d="M290.047 173.056C290.047 173.056 297.727 146.275 322.742 120.158C347.758 94.0407 358.953 82.755 370.586 80.3258C382.219 77.8966 334.813 132.228 319.016 146.275C303.219 160.322 298.391 171.728 293.774 173.056C289.157 174.384 290.047 173.056 290.047 173.056Z" fill="#E5AC62"/>
<path d="M310.129 171.744C311.136 162.241 315.8 153.502 323.135 147.377C335.311 137.494 331.192 148.886 331.192 148.886C331.192 148.886 327.405 166.825 315.893 171.774C315.893 171.744 311.849 173.675 310.129 171.744Z" fill="#B44538"/>
<path d="M268.667 173.554C268.693 172.548 268.668 171.541 268.592 170.537C268.049 162.615 267.747 130.056 297.515 115.843C331.524 99.6083 271.398 178.277 271.398 178.277C271.398 178.277 268.577 178.428 268.667 173.554Z" fill="#7F265B"/>
<path d="M199.912 174.158C199.912 174.158 212.253 144.284 222.8 141.794C233.346 139.305 208.029 173.057 208.029 173.057C208.029 173.057 203.201 175.335 199.912 174.158Z" fill="#B44538"/>
<path d="M136.482 174.58C136.693 176.632 133.072 177.145 131.246 176.18C119.84 170.024 100.392 143.861 110.41 102.52C121.59 56.4721 134.038 151.3 136.482 174.58Z" fill="#B44538"/>
<path d="M250.939 113.791C250.939 113.791 255.314 118.74 259.237 113.595Z" fill="#F1FAEE"/>
</svg>
