<svg id="Layer_1" data-name="Layer 1" xmlns="http://www.w3.org/2000/svg" viewBox="0 0 286.43 97.8"><title>Untitled-1</title><path d="M264.38,26.4" transform="translate(-14.22 -22.05)" fill="#f37a25"/><circle cx="139.08" cy="57.01" r="17.64" transform="translate(-25.45 35.52) rotate(-22.5)" fill="#f37a25"/><path d="M43,51.15a20,20,0,0,0-5.13-3.69c-1.09-.4-3.28-1.07-6.58-2a26.12,26.12,0,0,1-7.58-3.2q-2.62-1.82-2.63-6a9,9,0,0,1,2.63-6.47,8.62,8.62,0,0,1,6.41-2.7A9.74,9.74,0,0,1,37,29.64a8.4,8.4,0,0,1,2.74,6.43h5.47a13.22,13.22,0,0,0-4.23-10,14.26,14.26,0,0,0-10.21-4A15.15,15.15,0,0,0,20.16,26a13.21,13.21,0,0,0-4.31,10.2c0,4,1,6.93,3.1,8.7A19.07,19.07,0,0,0,24,48.3a52.47,52.47,0,0,0,5.23,1.6,48.47,48.47,0,0,1,5,1.53,12.56,12.56,0,0,1,3.38,2,10,10,0,0,1,2.63,3.38,9.09,9.09,0,0,1,1,4.08,9.74,9.74,0,0,1-3.16,7.43,10.93,10.93,0,0,1-7.73,3,9.93,9.93,0,0,1-7.47-3.21,10.76,10.76,0,0,1-3.06-7.68H14.22a15.15,15.15,0,0,0,4.69,11.45,16.13,16.13,0,0,0,11.6,4.49,15.94,15.94,0,0,0,11.28-4.43A14.39,14.39,0,0,0,46.53,61C46.53,56.5,45.37,53.21,43,51.15Z" transform="translate(-14.22 -22.05)" fill="#231f20"/><path d="M81.61,36.56V57.09a24.82,24.82,0,0,1-.5,5.25,15.89,15.89,0,0,1-3,5.61q-2.46,3.35-8.43,3.34-6.91,0-9-3.58a22.62,22.62,0,0,1-2.49-5.26,26.09,26.09,0,0,1-.39-5.36V36.56H52.57V57.09a42.79,42.79,0,0,0,.57,7.57,9.1,9.1,0,0,0,2.21,4.72,20.91,20.91,0,0,0,6.47,5.4A16.24,16.24,0,0,0,69,76.34a16.93,16.93,0,0,0,7.69-1.68,11.8,11.8,0,0,0,5.19-5.22v6h5V36.56Z" transform="translate(-14.22 -22.05)" fill="#231f20"/><path d="M105.59,36.56V22.9h-5.27V36.56H92.21v4.77h8.11V75.49h5.27V41.33h9V36.56Z" transform="translate(-14.22 -22.05)" fill="#231f20"/><path d="M154.55,36.56V44a14,14,0,0,0-6.22-6.19,19.72,19.72,0,0,0-8.91-2.06H139a20.31,20.31,0,0,0-8.11,1.88A22.43,22.43,0,0,0,124,42.31a19.43,19.43,0,0,0-4.12,6.36,19.05,19.05,0,0,0-1.39,7.07,21.65,21.65,0,0,0,1.28,7.43,19.41,19.41,0,0,0,3.74,6.28,20.46,20.46,0,0,0,6.94,4.83,21.32,21.32,0,0,0,9,2.06,18.79,18.79,0,0,0,8.87-2.11,15,15,0,0,0,6.22-6.07v7.33h5V36.56Zm-4.48,30.26a14.52,14.52,0,0,1-10.61,4.47,15.63,15.63,0,0,1-11-4.4,14.15,14.15,0,0,1-4.69-10.72,14.71,14.71,0,0,1,4.59-10.9A15.11,15.11,0,0,1,139,40.77h.46a14.53,14.53,0,0,1,10.75,4.51,15.14,15.14,0,0,1,4.38,11A14.48,14.48,0,0,1,150.07,66.82Z" transform="translate(-14.22 -22.05)" fill="#231f20"/><path d="M178,37.27a9.93,9.93,0,0,0-4.48,4.91V36.56h-5V75.49h5.27V53.71a18.2,18.2,0,0,1,.74-5.83,11.46,11.46,0,0,1,3.6-4.56,10,10,0,0,1,6.69-2.42V35.71A14.61,14.61,0,0,0,178,37.27Z" transform="translate(-14.22 -22.05)" fill="#231f20"/><path d="M223.44,22.9V46H196.18V22.9h-5.27V75.49h5.27V50.8h27.26V75.49h5.26V22.9Z" transform="translate(-14.22 -22.05)" fill="#231f20"/><path d="M267.63,36.56V57.09a24.82,24.82,0,0,1-.5,5.25A15.89,15.89,0,0,1,264.18,68q-2.46,3.35-8.44,3.34-6.9,0-9-3.58a22.62,22.62,0,0,1-2.49-5.26,26.09,26.09,0,0,1-.39-5.36V36.56h-5.27V57.09a40.86,40.86,0,0,0,.58,7.57,9,9,0,0,0,2.2,4.72,20.82,20.82,0,0,0,6.48,5.4A16.17,16.17,0,0,0,255,76.34a16.9,16.9,0,0,0,7.69-1.68,11.87,11.87,0,0,0,5.2-5.22v6h5V36.56Z" transform="translate(-14.22 -22.05)" fill="#231f20"/><path d="M291.61,36.56V22.9h-5.27V36.56h-8.11v4.77h8.11V75.49h5.27V41.33h9V36.56Z" transform="translate(-14.22 -22.05)" fill="#231f20"/><path d="M139.42,35.71V57.3H139V35.71h.46Z" transform="translate(-14.22 -22.05)" fill="#fff"/><path d="M139.19,61.84h0a2.92,2.92,0,0,1-2.91-2.91V54.16a2.92,2.92,0,0,1,2.91-2.91h0a2.92,2.92,0,0,1,2.9,2.91v4.77A2.92,2.92,0,0,1,139.19,61.84Z" transform="translate(-14.22 -22.05)" fill="#fff"/><path d="M176.7,99.47l-7-10v-.13h3.82l5.37,7.84,5.28-7.84h3.94v.13l-7,10L188.7,110v.08h-3.94l-5.83-8.38-5.87,8.38h-3.82V110Z" transform="translate(-14.22 -22.05)" fill="#7d7d7d"/><path d="M192.47,89.44h3.27l.17,4a8.55,8.55,0,0,1,3.35-3.21,9.59,9.59,0,0,1,4.62-1.15,10.25,10.25,0,0,1,7.42,3,10.47,10.47,0,0,1,2.89,7.68,10.67,10.67,0,0,1-2.91,7.82,10.22,10.22,0,0,1-7.61,3,10.11,10.11,0,0,1-4.53-1.05,7.47,7.47,0,0,1-3.31-3.15v13.51h-3.36Zm16.23,15.85a7.42,7.42,0,0,0-5.24-12.87,6.91,6.91,0,0,0-5.24,2.1,7.94,7.94,0,0,0,0,10.63,7.56,7.56,0,0,0,10.44.14Z" transform="translate(-14.22 -22.05)" fill="#7d7d7d"/><path d="M222.41,89.32l.25,3.1Q224.51,89,229,89a7.28,7.28,0,0,1,4.82,1.55l-1.55,2.94a6.18,6.18,0,0,0-3.61-1.13,6.09,6.09,0,0,0-4.32,1.74,5.93,5.93,0,0,0-1.76,4.46v11.53h-3.44V89.36h3.19Z" transform="translate(-14.22 -22.05)" fill="#7d7d7d"/><path d="M255,106.76a9.51,9.51,0,0,1-3.94,2.75,13.64,13.64,0,0,1-5,.94,10.78,10.78,0,0,1-7.88-3A11,11,0,0,1,253.88,92q3,3.14,2.37,9H238.64a6.42,6.42,0,0,0,2.39,4.51,7.87,7.87,0,0,0,5.11,1.7,10.73,10.73,0,0,0,3.72-.7,6.6,6.6,0,0,0,2.87-1.9l2.3,2.09Zm-2-8.55a6.06,6.06,0,0,0-2-4.59A7.4,7.4,0,0,0,246,92a7.58,7.58,0,0,0-4.87,1.64,6.78,6.78,0,0,0-2.47,4.53H253Z" transform="translate(-14.22 -22.05)" fill="#7d7d7d"/><path d="M274.32,94a8.35,8.35,0,0,0-5.83-2,7.36,7.36,0,0,0-3.71.75,2.41,2.41,0,0,0-1.4,2.27q0,2.47,5.16,3.06c1,.11,1.78.22,2.41.34a17,17,0,0,1,2.28.6,6.75,6.75,0,0,1,2.12,1.07,5.47,5.47,0,0,1,1.36,1.74,5.11,5.11,0,0,1,.55,2.58,5.26,5.26,0,0,1-2.52,4.59,11,11,0,0,1-6.16,1.62q-6.16,0-9.27-3.9l2-2.39a9,9,0,0,0,7.38,3.18,8.35,8.35,0,0,0,3.63-.75,2.62,2.62,0,0,0,1.61-2.47,2.3,2.3,0,0,0-1.4-2.27,13.92,13.92,0,0,0-4.17-1,22.52,22.52,0,0,1-3-.54,15,15,0,0,1-2.56-1,4.65,4.65,0,0,1-2-1.74,5.52,5.52,0,0,1,.6-6.22,7.13,7.13,0,0,1,3.13-2,12.09,12.09,0,0,1,4-.54,11.31,11.31,0,0,1,7.89,2.77l-2,2.26Z" transform="translate(-14.22 -22.05)" fill="#7d7d7d"/><path d="M295.25,94a8.38,8.38,0,0,0-5.83-2,7.33,7.33,0,0,0-3.71.75A2.4,2.4,0,0,0,284.3,95q0,2.47,5.16,3.06c1,.11,1.78.22,2.41.34a17.53,17.53,0,0,1,2.29.6,6.69,6.69,0,0,1,2.11,1.07,5.49,5.49,0,0,1,1.37,1.74,5.11,5.11,0,0,1,.54,2.58,5.25,5.25,0,0,1-2.51,4.59,11,11,0,0,1-6.17,1.62q-6.17,0-9.27-3.9l2-2.39a9,9,0,0,0,7.38,3.18,8.3,8.3,0,0,0,3.62-.75,2.64,2.64,0,0,0,1.62-2.47,2.29,2.29,0,0,0-1.41-2.27,13.75,13.75,0,0,0-4.17-1,22.82,22.82,0,0,1-3-.54,15,15,0,0,1-2.56-1,4.71,4.71,0,0,1-2-1.74,5.5,5.5,0,0,1,.61-6.22,7.15,7.15,0,0,1,3.12-2,12.11,12.11,0,0,1,4-.54,11.28,11.28,0,0,1,7.88,2.77l-2,2.26Z" transform="translate(-14.22 -22.05)" fill="#7d7d7d"/><path d="M142.52,86.82h11.77c6.94,0,12.59,4.76,12.59,10.62v3.74c0,5.86-5.65,10.62-12.59,10.62l-24.36.52a1.4,1.4,0,0,1,0-2.79l24.36-.52c5.41,0,9.81-3.51,9.81-7.83V97.44c0-4.32-4.4-7.83-9.81-7.83H142.52a1.4,1.4,0,1,1,0-2.79Z" transform="translate(-14.22 -22.05)" fill="#f37a25"/><path d="M147.24,101h17.41a1.69,1.69,0,0,0,1.69-1.69h0a1.69,1.69,0,0,0-1.69-1.69H147.24a1.69,1.69,0,0,0-1.68,1.69h0A1.69,1.69,0,0,0,147.24,101Z" transform="translate(-14.22 -22.05)" fill="#f37a25"/><path d="M136.06,101h5.64a1.69,1.69,0,0,0,1.69-1.69h0a1.69,1.69,0,0,0-1.69-1.69h-5.64a1.69,1.69,0,0,0-1.69,1.69h0A1.69,1.69,0,0,0,136.06,101Z" transform="translate(-14.22 -22.05)" fill="#f37a25"/><path d="M124.45,112.61h.32a1.69,1.69,0,0,0,1.69-1.68h0a1.69,1.69,0,0,0-1.69-1.69h-.32a1.69,1.69,0,0,0-1.69,1.69h0A1.69,1.69,0,0,0,124.45,112.61Z" transform="translate(-14.22 -22.05)" fill="#f37a25"/></svg>